<?xml version="1.0" standalone="no"?>
<!DOCTYPE svg PUBLIC "-//W3C//DTD SVG 20010904//EN"
 "http://www.w3.org/TR/2001/REC-SVG-20010904/DTD/svg10.dtd">
<svg version="1.0" xmlns="http://www.w3.org/2000/svg"
 width="512.000000pt" height="512.000000pt" viewBox="0 0 512.000000 512.000000"
 preserveAspectRatio="xMidYMid meet">
<metadata>
Created by potrace 1.11, written by Peter Selinger 2001-2013
</metadata>
<g transform="translate(0.000000,512.000000) scale(0.100000,-0.100000)"
fill="#000000" stroke="none">
<path d="M2369 5116 c-2 -2 -33 -6 -69 -10 -58 -5 -191 -26 -274 -41 -53 -10
-245 -65 -314 -89 -450 -158 -859 -450 -1163 -831 -295 -370 -486 -842 -537
-1325 -9 -88 -8 -461 2 -535 4 -33 10 -76 12 -95 3 -19 6 -44 8 -55 2 -11 7
-38 11 -60 24 -136 91 -354 157 -513 79 -191 230 -443 372 -618 190 -235 472
-472 744 -623 211 -117 485 -219 712 -265 216 -43 292 -51 525 -51 220 0 294
6 480 41 308 56 615 176 880 343 435 273 773 662 984 1131 38 83 108 273 117
314 2 10 8 33 13 50 11 34 48 199 56 249 24 148 29 229 30 422 0 217 -11 338
-44 500 -6 28 -13 61 -15 75 -44 222 -191 574 -332 795 -128 201 -298 400
-484 565 -51 45 -248 192 -295 220 -22 13 -42 26 -45 29 -22 25 -289 158 -415
207 -172 67 -403 128 -565 149 -25 3 -61 8 -80 11 -40 6 -465 15 -471 10z
m366 -460 c772 -58 1458 -561 1760 -1289 77 -187 124 -377 150 -605 6 -48 6
-356 0 -404 -6 -53 -15 -119 -20 -148 -3 -14 -7 -38 -10 -55 -12 -74 -71 -273
-108 -369 -7 -17 -33 -73 -58 -126 -308 -640 -911 -1080 -1612 -1175 -121 -17
-358 -23 -462 -12 -375 40 -684 149 -979 344 -428 284 -740 719 -870 1213 -58
219 -85 529 -61 720 3 30 8 71 10 90 4 33 14 97 20 130 13 68 68 266 85 305 5
11 27 65 50 120 188 450 563 841 1015 1059 153 74 377 149 509 171 17 3 45 8
61 11 55 10 89 13 190 20 55 3 101 7 102 8 3 3 148 -2 228 -8z"/>
<path d="M2181 3835 c-137 -132 -388 -370 -536 -510 -18 -16 -101 -96 -186
-176 -85 -80 -172 -163 -194 -184 -22 -20 -109 -103 -194 -184 -85 -80 -172
-163 -193 -184 l-40 -38 38 -35 c22 -20 75 -70 119 -112 44 -42 116 -110 160
-151 44 -42 146 -137 225 -212 80 -75 165 -156 190 -179 25 -23 104 -97 175
-165 72 -67 146 -137 165 -155 83 -77 306 -288 337 -318 l33 -33 0 331 c0 252
-3 334 -12 343 -14 14 -101 94 -282 262 -65 61 -128 119 -140 130 -12 11 -78
71 -146 134 -69 63 -136 126 -149 139 l-23 24 45 41 c24 23 99 94 167 157 67
63 141 132 164 154 22 21 102 95 176 166 74 70 150 140 168 157 l32 29 -2 329
-3 329 -94 -89z"/>
<path d="M2830 3594 l0 -327 38 -35 c20 -19 96 -90 167 -157 72 -68 146 -137
165 -155 19 -18 91 -85 159 -149 68 -64 146 -137 175 -163 l51 -48 -45 -41
c-25 -22 -70 -64 -100 -92 -45 -42 -150 -140 -304 -282 -131 -121 -266 -246
-283 -260 -23 -19 -23 -20 -23 -348 0 -280 2 -327 14 -320 8 4 54 46 103 93
111 106 378 358 418 394 17 15 93 88 170 161 77 73 156 147 175 165 19 18 98
91 174 164 179 168 278 262 341 320 l49 47 -44 40 c-25 23 -116 109 -204 193
-87 83 -175 167 -195 186 -21 19 -105 99 -187 177 -82 78 -172 163 -200 190
-29 26 -125 118 -215 203 -90 85 -197 187 -237 225 -41 39 -92 87 -113 108
-22 20 -41 37 -44 37 -3 0 -5 -147 -5 -326z"/>
</g>
</svg>
